<svg width="22" height="22" viewBox="0 0 22 22" fill="none" xmlns="http://www.w3.org/2000/svg">
<circle cx="10.605" cy="10.605" r="10.605" fill="#08B70F"/>
<path d="M8.16938 13.4465L8.17717 13.4698L8.18803 13.4478L8.65949 12.4893C9.35677 11.0717 10.1537 9.9481 11.2344 8.85871C12.6664 7.41534 13.9742 6.61425 15.6273 6.16725C15.7777 6.12658 15.9428 6.08961 16.0877 6.06279C16.2328 6.03594 16.3568 6.01942 16.4253 6.01938C16.4828 6.01936 16.526 6.01991 16.5564 6.0221C16.5716 6.0232 16.5832 6.02468 16.5916 6.0266C16.5996 6.02842 16.6031 6.03031 16.6044 6.03137C16.6043 6.03161 16.6042 6.03192 16.604 6.03231C16.6023 6.03537 16.5982 6.04005 16.5903 6.04659C16.5747 6.05943 16.5484 6.07634 16.5116 6.09869C15.2457 6.86866 14.7078 7.28174 13.7611 8.21063C12.2933 9.65098 11.6364 10.6119 10.0091 13.6983C9.59196 14.4894 9.25179 15.0907 8.96921 15.5327C8.68648 15.9748 8.46189 16.2567 8.27604 16.4096C8.19785 16.4739 8.13683 16.5219 8.08568 16.5542C8.0345 16.5865 7.99425 16.6025 7.95752 16.604C7.92114 16.6056 7.88668 16.5931 7.84689 16.5652C7.80687 16.5371 7.76227 16.494 7.70575 16.4355C7.3912 16.1097 7.14197 15.617 6.79805 14.6375C6.47727 13.7241 6.20271 13.1276 5.89998 12.7596C5.74846 12.5753 5.58971 12.4481 5.41437 12.3669C5.23903 12.2858 5.04769 12.2511 4.83137 12.2511C4.76035 12.2511 4.70748 12.2483 4.67053 12.2391C4.63384 12.23 4.61544 12.2152 4.60881 12.1927C4.60172 12.1687 4.60696 12.1331 4.62657 12.0797C4.646 12.0267 4.67867 11.9584 4.72364 11.8704C4.81237 11.6965 4.95477 11.533 5.11923 11.4049C5.28372 11.2768 5.46967 11.1845 5.64515 11.1523C6.08862 11.071 6.58718 11.2473 7.0246 11.5922C7.46185 11.9369 7.83678 12.4491 8.03277 13.0369L8.04235 13.0337L8.03277 13.0369L8.16938 13.4465Z" fill="#FBFBFB" stroke="#FBFBFB" stroke-width="0.0202"/>
</svg>